<svg xmlns="http://www.w3.org/2000/svg" viewBox="0 0 1686 566.48"><defs><style>.a{fill:#fff;}.b{fill:#005f86;}.c{fill:#bf5700;}.d{fill:#231f20;stroke:#fff;stroke-miterlimit:10;stroke-width:5px;}</style></defs><title>Logo_White_Name</title><path class="a" d="M16,469.47v-360H248v29H50v130H230v29H50v172Z"/><path class="a" d="M684.5,469.47v-360h34v360Z"/><path class="a" d="M811.5,469.47v-360h34v331h193v29Z"/><path class="a" d="M620.25,197.53c-11.31,9.28-22.91,18.05-34.48,26.87L577,230.93l-8.78,6.45-8.84,6.34L550.53,250c-5.94,4.13-11.54,8.86-17.31,13.3a83.84,83.84,0,0,1-18.67,11,136.93,136.93,0,0,1-20.94,7c-3.66.87-7.39,1.64-11.25,2.18a73.45,73.45,0,0,1-12.05.78l-1.5-2.6a72.51,72.51,0,0,1,6.69-10c2.38-3.08,4.91-5.93,7.49-8.67a136,136,0,0,1,16.54-14.64,83.8,83.8,0,0,1,18.82-10.71c6.73-2.79,13.62-5.28,20.17-8.38l9.85-4.58,9.9-4.51,10-4.38,10-4.31c13.41-5.64,26.8-11.32,40.48-16.49Z"/><path class="a" d="M471.06,109.5c2.37,14.46,4.16,28.91,6,43.36l1.28,10.84,1.19,10.85,1.06,10.84,1,10.84c.59,7.22,1.89,14.45,2.85,21.68a84.14,84.14,0,0,1,.15,21.68,137.74,137.74,0,0,1-4.39,21.68c-1.08,3.61-2.28,7.23-3.76,10.84A73,73,0,0,1,471.06,283h-3a74.09,74.09,0,0,1-5.36-10.84c-1.47-3.61-2.67-7.23-3.75-10.84a135.51,135.51,0,0,1-4.39-21.68,84.14,84.14,0,0,1,.15-21.68c1-7.23,2.25-14.46,2.85-21.68l1-10.84,1.05-10.84,1.2-10.85,1.28-10.84c1.84-14.45,3.63-28.9,6-43.36Z"/><path class="a" d="M320.37,194.93c13.69,5.17,27.08,10.85,40.49,16.49l10,4.31,10,4.38,9.9,4.51,9.86,4.58c6.54,3.1,13.44,5.59,20.17,8.38a84,84,0,0,1,18.81,10.71,135.3,135.3,0,0,1,16.55,14.64c2.58,2.74,5.1,5.59,7.49,8.67a73.42,73.42,0,0,1,6.69,10l-1.5,2.6a73.65,73.65,0,0,1-12.06-.78c-3.86-.54-7.58-1.31-11.25-2.18a136.93,136.93,0,0,1-20.94-7,83.78,83.78,0,0,1-18.66-11c-5.77-4.44-11.37-9.17-17.32-13.3l-8.88-6.26-8.85-6.34-8.77-6.45-8.73-6.53c-11.57-8.82-23.17-17.59-34.48-26.87Z"/><path class="a" d="M318.87,368.38c11.31-9.28,22.91-18.06,34.48-26.88l8.73-6.53,8.77-6.45,8.85-6.33,8.88-6.26c5.95-4.13,11.55-8.87,17.32-13.31a84.12,84.12,0,0,1,18.66-11,135.88,135.88,0,0,1,20.94-7c3.67-.87,7.39-1.64,11.25-2.17a74.75,74.75,0,0,1,12.06-.79l1.5,2.6a73.53,73.53,0,0,1-6.69,10.06c-2.39,3.08-4.91,5.92-7.49,8.67a136.15,136.15,0,0,1-16.55,14.64,84.35,84.35,0,0,1-18.81,10.71c-6.73,2.78-13.63,5.27-20.17,8.37l-9.86,4.58-9.9,4.51-10,4.39-10,4.31c-13.41,5.63-26.8,11.31-40.49,16.49Z"/><path class="a" d="M468.06,456.4c-2.37-14.45-4.16-28.91-6-43.36l-1.28-10.84-1.2-10.84-1.05-10.84-1-10.84c-.6-7.23-1.89-14.46-2.85-21.68a84.22,84.22,0,0,1-.15-21.69A135.73,135.73,0,0,1,459,304.63c1.08-3.61,2.28-7.22,3.75-10.84A75.09,75.09,0,0,1,468.06,283h3a74,74,0,0,1,5.35,10.84c1.48,3.62,2.68,7.23,3.76,10.84a138,138,0,0,1,4.39,21.68,84.22,84.22,0,0,1-.15,21.69c-1,7.22-2.26,14.45-2.85,21.68l-1,10.84-1.06,10.84-1.19,10.84L477.06,413c-1.84,14.45-3.63,28.91-6,43.36Z"/><path class="a" d="M618.74,371c-13.68-5.18-27.07-10.86-40.48-16.49l-10-4.31-10-4.39-9.9-4.51-9.85-4.58c-6.55-3.1-13.44-5.59-20.17-8.37a84.19,84.19,0,0,1-18.82-10.71A136.82,136.82,0,0,1,483,303c-2.58-2.75-5.11-5.59-7.49-8.67a72.63,72.63,0,0,1-6.69-10.06l1.5-2.6a74.55,74.55,0,0,1,12.05.79c3.86.53,7.59,1.3,11.25,2.17a135.88,135.88,0,0,1,20.94,7,84.19,84.19,0,0,1,18.67,11c5.77,4.44,11.37,9.18,17.31,13.31l8.89,6.26,8.84,6.33L577,335l8.73,6.53c11.57,8.82,23.17,17.6,34.48,26.88Z"/><path class="a" d="M535.73,171.13c-.83,2.65-1.73,5.25-2.6,7.88l-2.74,7.79c-1.82,5.2-3.75,10.33-5.68,15.47L521.77,210l-3,7.63-3.14,7.56-3.22,7.52c-1.07,2.5-2,5.07-2.94,7.67s-1.75,5.25-2.7,7.82a50.86,50.86,0,0,1-3.37,7.43,48.21,48.21,0,0,1-4.61,6.72,80.11,80.11,0,0,1-11.91,11.88,76,76,0,0,1-7.31,5.16,51.07,51.07,0,0,1-8.69,4.36l-2.6-1.5a52,52,0,0,1-.59-9.71,75,75,0,0,1,.81-8.91,79.42,79.42,0,0,1,4.3-16.26,48.11,48.11,0,0,1,3.5-7.35,50.94,50.94,0,0,1,4.74-6.65c1.75-2.11,3.61-4.16,5.41-6.25s3.54-4.21,5.17-6.39l4.89-6.56,5-6.5,5.09-6.44,5.16-6.4c3.48-4.24,7-8.49,10.54-12.67l5.37-6.28c1.84-2.06,3.63-4.15,5.51-6.2Z"/><path class="a" d="M406,169.63c1.87,2.05,3.67,4.14,5.5,6.2l5.38,6.28c3.58,4.18,7.05,8.43,10.53,12.67l5.17,6.4,5.09,6.44,5,6.5,4.89,6.56c1.63,2.18,3.36,4.31,5.16,6.39s3.66,4.14,5.42,6.25a51.82,51.82,0,0,1,4.73,6.65,48.15,48.15,0,0,1,3.51,7.35,80.72,80.72,0,0,1,4.3,16.26,75.06,75.06,0,0,1,.8,8.91,51.15,51.15,0,0,1-.58,9.71l-2.6,1.5a51.18,51.18,0,0,1-8.7-4.36,77.12,77.12,0,0,1-7.3-5.16,80.19,80.19,0,0,1-11.92-11.88,48.14,48.14,0,0,1-4.6-6.72,52,52,0,0,1-3.38-7.43c-.94-2.57-1.79-5.21-2.69-7.82s-1.87-5.17-2.95-7.67l-3.21-7.52-3.14-7.56-3-7.63-2.94-7.68c-1.93-5.14-3.86-10.27-5.69-15.47L406,179c-.87-2.63-1.78-5.23-2.6-7.88Z"/><path class="a" d="M403.39,394.77c.82-2.65,1.73-5.25,2.6-7.87l2.73-7.8c1.83-5.19,3.76-10.33,5.69-15.47l2.94-7.67,3-7.63,3.14-7.57,3.21-7.51c1.08-2.51,2-5.07,2.95-7.68s1.75-5.24,2.69-7.82a52.49,52.49,0,0,1,3.38-7.43,47.47,47.47,0,0,1,4.6-6.71,80.19,80.19,0,0,1,11.92-11.88,75.41,75.41,0,0,1,7.3-5.17,51.93,51.93,0,0,1,8.7-4.36l2.6,1.5a51.2,51.2,0,0,1,.58,9.71,75.06,75.06,0,0,1-.8,8.91,80.72,80.72,0,0,1-4.3,16.26,47.82,47.82,0,0,1-3.51,7.36,52.43,52.43,0,0,1-4.73,6.64c-1.76,2.11-3.61,4.17-5.42,6.25s-3.53,4.21-5.16,6.4l-4.89,6.55-5,6.51-5.09,6.44-5.17,6.39c-3.48,4.25-6.95,8.49-10.53,12.68l-5.38,6.27c-1.83,2.07-3.63,4.16-5.5,6.2Z"/><path class="a" d="M533.13,396.27c-1.88-2-3.67-4.13-5.51-6.2l-5.37-6.27c-3.58-4.19-7.06-8.43-10.54-12.68l-5.16-6.39-5.09-6.44-5-6.51-4.89-6.55c-1.63-2.19-3.36-4.31-5.17-6.4s-3.66-4.14-5.41-6.25a51.52,51.52,0,0,1-4.74-6.64,47.77,47.77,0,0,1-3.5-7.36,79.42,79.42,0,0,1-4.3-16.26,75,75,0,0,1-.81-8.91,52.08,52.08,0,0,1,.59-9.71l2.6-1.5a51.82,51.82,0,0,1,8.69,4.36,74.36,74.36,0,0,1,7.31,5.17,80.11,80.11,0,0,1,11.91,11.88,47.54,47.54,0,0,1,4.61,6.71,51.34,51.34,0,0,1,3.37,7.43c.95,2.58,1.8,5.22,2.7,7.82s1.87,5.17,2.94,7.68l3.22,7.51,3.14,7.57,3,7.63,2.94,7.67c1.93,5.14,3.86,10.28,5.68,15.47l2.74,7.8c.87,2.62,1.77,5.22,2.6,7.87Z"/><path class="a" d="M599.3,284.45c-2.7.61-5.4,1.12-8.11,1.68l-8.1,1.52c-5.41,1-10.82,1.91-16.22,2.8l-8.11,1.28-8.11,1.2L542.54,294l-8.11,1c-2.7.32-5.41.76-8.11,1.28s-5.4,1.11-8.11,1.57a50.51,50.51,0,0,1-8.11.79A47.25,47.25,0,0,1,502,298a79.39,79.39,0,0,1-16.21-4.39,74.35,74.35,0,0,1-8.11-3.75,51.33,51.33,0,0,1-8.11-5.36v-3a50.56,50.56,0,0,1,8.11-5.35,74.45,74.45,0,0,1,8.11-3.76A80.7,80.7,0,0,1,502,268a47.23,47.23,0,0,1,8.11-.63,51.66,51.66,0,0,1,8.11.78c2.71.47,5.41,1,8.11,1.57s5.41,1,8.11,1.28l8.11,1,8.11,1.06,8.11,1.19,8.11,1.28c5.4.9,10.81,1.79,16.22,2.8l8.1,1.52c2.71.56,5.41,1.08,8.11,1.68Z"/><polygon class="b" points="469.56 297.95 230 282.95 469.56 267.95 469.56 297.95"/><ellipse class="c" cx="469.56" cy="282.95" rx="36.05" ry="36.12"/><line class="d" x1="1119.18" y1="43.16" x2="1119.18" y2="522.75"/><path class="a" d="M1200.54,81.18h44.78v7.91h-36v19.6H1241v7.69h-31.69v29.36h-8.74Z"/><path class="a" d="M1266,98.67v31.25a13.53,13.53,0,0,0,1.12,5.89q2.05,4.22,7.66,4.21,8,0,11-7.38,1.59-3.94,1.59-10.85V98.67h7.91v47.07h-7.47l.08-7a15.67,15.67,0,0,1-3.75,4.53,16.3,16.3,0,0,1-10.78,3.69q-9.87,0-13.45-6.72c-1.3-2.4-1.94-5.61-1.94-9.63v-32Z"/><path class="a" d="M1312.68,98.67h7.51v6.68a21.15,21.15,0,0,1,7.08-5.93,18.88,18.88,0,0,1,8.3-1.8q10,0,13.54,7,1.94,3.83,1.93,11v30.19h-8V116.07a16.2,16.2,0,0,0-1.27-6.94q-2.12-4.39-7.65-4.39a15.66,15.66,0,0,0-4.62.57,11.84,11.84,0,0,0-5.71,3.87,11.62,11.62,0,0,0-2.57,4.81,32.08,32.08,0,0,0-.59,7.09v24.66h-7.91Z"/><path class="a" d="M1398.32,101.18q5,3.87,6,13.31h-7.69a14.22,14.22,0,0,0-3.21-7.23q-2.51-2.87-8-2.87-7.56,0-10.81,7.37a29.19,29.19,0,0,0-2.11,11.81,22.21,22.21,0,0,0,3,11.89q3,4.83,9.4,4.83a10.31,10.31,0,0,0,7.8-3,16.42,16.42,0,0,0,4-8.21h7.69q-1.32,9.36-6.59,13.69t-13.49,4.33a18,18,0,0,1-14.72-6.75q-5.51-6.73-5.5-16.85,0-12.39,6-19.29a19.47,19.47,0,0,1,15.34-6.9Q1393.33,97.31,1398.32,101.18Z"/><path class="a" d="M1418.31,85.53h8V98.67h7.52v6.46h-7.52v30.72a3.34,3.34,0,0,0,1.67,3.3,7.16,7.16,0,0,0,3.08.48l1.23,0c.44,0,1-.07,1.54-.15v6.29a18.54,18.54,0,0,1-2.84.57,26.32,26.32,0,0,1-3.18.17c-3.7,0-6.2-.94-7.52-2.83a12.58,12.58,0,0,1-2-7.36V105.13h-6.37V98.67h6.37Z"/><path class="a" d="M1446.24,81.18h8v9h-8Zm0,17.71h8v46.85h-8Z"/><path class="a" d="M1504.83,103.37q6.24,6.06,6.24,17.82,0,11.38-5.5,18.8t-17.06,7.42q-9.65,0-15.31-6.57t-5.68-17.62q0-11.86,6-18.88t16.06-7A21.09,21.09,0,0,1,1504.83,103.37Zm-4.91,31.28a29.85,29.85,0,0,0,2.89-13.23,23.77,23.77,0,0,0-2.08-10.71q-3.32-6.49-11.39-6.5-7.17,0-10.43,5.53a25.88,25.88,0,0,0-3.26,13.34,22.47,22.47,0,0,0,3.26,12.51q3.25,5,10.34,5Q1497,140.6,1499.92,134.65Z"/><path class="a" d="M1525.28,98.67h7.52v6.68a21.12,21.12,0,0,1,7.07-5.93,18.89,18.89,0,0,1,8.31-1.8q10,0,13.54,7,1.92,3.83,1.93,11v30.19h-8V116.07a16,16,0,0,0-1.28-6.94q-2.1-4.39-7.64-4.39a15.62,15.62,0,0,0-4.62.57,11.79,11.79,0,0,0-5.71,3.87,11.51,11.51,0,0,0-2.57,4.81,32.08,32.08,0,0,0-.59,7.09v24.66h-7.92Z"/><path class="a" d="M1605.06,117.25a4.27,4.27,0,0,0,3.65-2.28,7,7,0,0,0,.53-3q0-4.07-2.88-5.89t-8.22-1.83q-6.18,0-8.77,3.36a11.07,11.07,0,0,0-1.88,5.52h-7.39q.23-8.73,5.64-12.15a23.17,23.17,0,0,1,12.58-3.41q8.29,0,13.47,3.16t5.14,9.85v27.11a3.54,3.54,0,0,0,.5,2,2.45,2.45,0,0,0,2.14.75c.35,0,.74,0,1.18-.07s.91-.11,1.41-.2V146a22.88,22.88,0,0,1-2.81.66,22.35,22.35,0,0,1-2.64.13c-2.73,0-4.7-1-5.93-2.9a11.25,11.25,0,0,1-1.37-4.35,20,20,0,0,1-6.94,5.49,21.52,21.52,0,0,1-10,2.33,14.84,14.84,0,0,1-10.7-4,13.21,13.21,0,0,1-4.15-9.94q0-6.54,4.09-10.14a19.48,19.48,0,0,1,10.72-4.44Zm-16.65,21.37a9.28,9.28,0,0,0,5.93,2,18.19,18.19,0,0,0,8.09-1.93,10.87,10.87,0,0,0,6.59-10.49v-6.36a13.74,13.74,0,0,1-3.73,1.54,30.93,30.93,0,0,1-4.47.88l-4.78.62a18.72,18.72,0,0,0-6.47,1.79,7,7,0,0,0-3.67,6.58A6.48,6.48,0,0,0,1588.41,138.62Z"/><path class="a" d="M1634.61,81.18h7.91v64.56h-7.91Z"/><path class="a" d="M1252.88,198.41q6.4,8.57,6.41,21.93,0,14.46-7.34,24-8.61,11.25-24.56,11.25-14.9,0-23.42-9.85-7.6-9.48-7.61-24,0-13.09,6.51-22.41,8.34-12,24.69-12Q1244.66,187.42,1252.88,198.41Zm-7.72,41.15a35.25,35.25,0,0,0,5.17-19.07q0-11.38-6-18.34t-16.28-7a21.2,21.2,0,0,0-16.35,6.89q-6.32,6.89-6.32,20.29,0,10.74,5.42,18.1t17.6,7.37Q1240,247.85,1245.16,239.56Z"/><path class="a" d="M1272.49,206.89h7.74v6.24a19.07,19.07,0,0,1,5.2-5,16.73,16.73,0,0,1,9.43-2.64,17.74,17.74,0,0,1,13.61,6.13q5.6,6.14,5.6,17.51,0,15.39-8.08,22a18.24,18.24,0,0,1-11.91,4.18,16.27,16.27,0,0,1-9-2.33,20.75,20.75,0,0,1-4.72-4.53v24h-7.91Zm29.76,36.89q3.69-4.64,3.69-13.86a25.78,25.78,0,0,0-1.64-9.67q-3.08-7.77-11.28-7.78t-11.29,8.22a32.41,32.41,0,0,0-1.63,11.16,23.57,23.57,0,0,0,1.63,9.28q3.07,7.29,11.29,7.29A11.3,11.3,0,0,0,1302.25,243.78Z"/><path class="a" d="M1329.29,193.53h8v13.14h7.51v6.46h-7.51v30.72a3.32,3.32,0,0,0,1.67,3.3,7.11,7.11,0,0,0,3.07.48l1.23,0c.44,0,1-.07,1.54-.15v6.29a18.42,18.42,0,0,1-2.83.57,26.49,26.49,0,0,1-3.19.17c-3.69,0-6.2-.94-7.51-2.83a12.58,12.58,0,0,1-2-7.36V213.13h-6.37v-6.46h6.37Z"/><path class="a" d="M1357.21,189.18h8v9h-8Zm0,17.71h8v46.85h-8Z"/><path class="a" d="M1412.8,209.18q5,3.87,6,13.31h-7.69a14.22,14.22,0,0,0-3.21-7.23q-2.51-2.87-8-2.87-7.56,0-10.81,7.37a29.19,29.19,0,0,0-2.11,11.81,22.2,22.2,0,0,0,3,11.89q3,4.83,9.41,4.83a10.31,10.31,0,0,0,7.8-3,16.5,16.5,0,0,0,4-8.21h7.69q-1.32,9.36-6.6,13.69t-13.49,4.33a18,18,0,0,1-14.72-6.75q-5.49-6.73-5.49-16.85,0-12.39,6-19.29a19.46,19.46,0,0,1,15.34-6.9Q1407.81,205.31,1412.8,209.18Z"/><path class="a" d="M1456.43,225.25a4.29,4.29,0,0,0,3.65-2.28,7,7,0,0,0,.53-3q0-4.06-2.88-5.89t-8.22-1.83q-6.18,0-8.77,3.36a11.07,11.07,0,0,0-1.89,5.52h-7.38q.22-8.73,5.64-12.15a23.15,23.15,0,0,1,12.58-3.41q8.3,0,13.47,3.16t5.14,9.85v27.11a3.46,3.46,0,0,0,.5,2,2.44,2.44,0,0,0,2.13.75c.35,0,.75,0,1.19-.07s.91-.11,1.41-.2V254a22.53,22.53,0,0,1-2.82.66,22,22,0,0,1-2.63.13q-4.1,0-5.94-2.9a11.44,11.44,0,0,1-1.36-4.35,20,20,0,0,1-6.94,5.49,21.52,21.52,0,0,1-10,2.33,14.84,14.84,0,0,1-10.7-4,13.18,13.18,0,0,1-4.15-9.94q0-6.54,4.09-10.14a19.48,19.48,0,0,1,10.72-4.44Zm-16.65,21.37a9.26,9.26,0,0,0,5.93,2,18.12,18.12,0,0,0,8.08-1.93,10.87,10.87,0,0,0,6.6-10.49v-6.36a13.74,13.74,0,0,1-3.73,1.54,30.93,30.93,0,0,1-4.47.88l-4.78.62a18.66,18.66,0,0,0-6.47,1.79,7,7,0,0,0-3.67,6.58A6.48,6.48,0,0,0,1439.78,246.62Z"/><path class="a" d="M1486,189.18h7.91v64.56H1486Z"/><path class="a" d="M1201.68,297.18h8.83v64.56h-8.83Z"/><path class="a" d="M1228.15,314.67H1236v6.68a26.2,26.2,0,0,1,5.09-5.05,15.33,15.33,0,0,1,8.88-2.68,13.93,13.93,0,0,1,9,2.77,14.45,14.45,0,0,1,3.52,4.65,17.15,17.15,0,0,1,6.19-5.6,17.38,17.38,0,0,1,8-1.82q9.49,0,12.92,6.85a22.4,22.4,0,0,1,1.85,9.93v31.34h-8.22V329c0-3.13-.78-5.29-2.35-6.46a9.33,9.33,0,0,0-5.74-1.76,11.37,11.37,0,0,0-8,3.12q-3.37,3.12-3.37,10.42v27.38h-8V331q0-4.78-1.14-7-1.8-3.28-6.73-3.29a11.59,11.59,0,0,0-8.15,3.47q-3.66,3.46-3.67,12.57v25h-7.91Z"/><path class="a" d="M1332.85,333.25a4.3,4.3,0,0,0,3.65-2.28,7,7,0,0,0,.52-3c0-2.71-1-4.67-2.87-5.89s-4.66-1.83-8.22-1.83q-6.18,0-8.77,3.36a11,11,0,0,0-1.89,5.52h-7.38q.21-8.73,5.64-12.15a23.12,23.12,0,0,1,12.57-3.41q8.3,0,13.48,3.16t5.13,9.85v27.11a3.46,3.46,0,0,0,.51,2,2.44,2.44,0,0,0,2.13.75c.35,0,.75,0,1.19-.07s.91-.11,1.4-.2V362a22.47,22.47,0,0,1-2.81.66,22.11,22.11,0,0,1-2.64.13q-4.08,0-5.93-2.9a11.26,11.26,0,0,1-1.36-4.35,20.12,20.12,0,0,1-6.94,5.49,21.55,21.55,0,0,1-10,2.33,14.83,14.83,0,0,1-10.7-4,13.18,13.18,0,0,1-4.15-9.94q0-6.54,4.08-10.14a19.51,19.51,0,0,1,10.73-4.44Zm-16.66,21.37a9.29,9.29,0,0,0,5.94,2,18.15,18.15,0,0,0,8.08-1.93,10.86,10.86,0,0,0,6.59-10.49v-6.36a13.53,13.53,0,0,1-3.72,1.54,31.06,31.06,0,0,1-4.48.88l-4.78.62a18.66,18.66,0,0,0-6.46,1.79,7,7,0,0,0-3.67,6.58A6.48,6.48,0,0,0,1316.19,354.62Z"/><path class="a" d="M1388.34,316.56a21.89,21.89,0,0,1,4.56,4.48v-5.93h7.29v42.8q0,9-2.63,14.15-4.9,9.58-18.52,9.58a22.68,22.68,0,0,1-12.75-3.4q-5.18-3.4-5.78-10.66h8a9,9,0,0,0,2.27,4.88q2.67,2.64,8.39,2.64,9,0,11.85-6.42,1.67-3.78,1.53-13.49a15.57,15.57,0,0,1-5.69,5.36,20.34,20.34,0,0,1-22.13-3.67q-5.71-5.43-5.71-17.95,0-11.82,5.75-18.46a17.78,17.78,0,0,1,13.9-6.63A17.07,17.07,0,0,1,1388.34,316.56Zm1,8.48a11.48,11.48,0,0,0-9.14-4.22q-8.31,0-11.36,7.83a30.76,30.76,0,0,0-1.62,10.94q0,7.95,3.21,12.11a10.37,10.37,0,0,0,8.64,4.15q8.48,0,11.93-7.69A25,25,0,0,0,1392.9,338Q1392.9,329.27,1389.31,325Z"/><path class="a" d="M1416.73,297.18h8v9h-8Zm0,17.71h8v46.85h-8Z"/><path class="a" d="M1441.23,314.67h7.51v6.68a21.15,21.15,0,0,1,7.08-5.93,18.85,18.85,0,0,1,8.3-1.8q10,0,13.54,7,1.93,3.82,1.93,10.95v30.19h-8V332.07a16,16,0,0,0-1.28-6.94q-2.1-4.39-7.64-4.39a15.62,15.62,0,0,0-4.62.57,11.84,11.84,0,0,0-5.71,3.87,11.51,11.51,0,0,0-2.57,4.81,32.08,32.08,0,0,0-.59,7.09v24.66h-7.91Z"/><path class="a" d="M1522,316.56a22.12,22.12,0,0,1,4.55,4.48v-5.93h7.29v42.8q0,9-2.63,14.15-4.9,9.58-18.52,9.58a22.7,22.7,0,0,1-12.75-3.4q-5.16-3.4-5.78-10.66h8a9,9,0,0,0,2.27,4.88q2.67,2.64,8.4,2.64,9,0,11.84-6.42,1.66-3.78,1.53-13.49a15.5,15.5,0,0,1-5.69,5.36,20.34,20.34,0,0,1-22.13-3.67q-5.71-5.43-5.71-17.95,0-11.82,5.76-18.46a17.76,17.76,0,0,1,13.89-6.63A17.13,17.13,0,0,1,1522,316.56Zm1,8.48a11.46,11.46,0,0,0-9.13-4.22q-8.31,0-11.37,7.83a30.76,30.76,0,0,0-1.62,10.94q0,7.95,3.21,12.11a10.39,10.39,0,0,0,8.64,4.15q8.47,0,11.93-7.69A24.81,24.81,0,0,0,1526.5,338Q1526.5,329.27,1522.91,325Z"/><path class="a" d="M1199.7,405.18h8.75v56.87h32.39v7.69H1199.7Z"/><path class="a" d="M1278.43,441.25a4.27,4.27,0,0,0,3.64-2.28,6.85,6.85,0,0,0,.53-3q0-4.06-2.87-5.89t-8.22-1.83q-6.19,0-8.78,3.36a11.07,11.07,0,0,0-1.88,5.52h-7.38q.21-8.73,5.64-12.15a23.12,23.12,0,0,1,12.57-3.41q8.29,0,13.48,3.16t5.13,9.85v27.11a3.46,3.46,0,0,0,.51,2q.5.75,2.13.75c.35,0,.75,0,1.18-.07s.91-.11,1.41-.2V470a22.88,22.88,0,0,1-2.81.66,22.23,22.23,0,0,1-2.64.13q-4.08,0-5.93-2.9a11.09,11.09,0,0,1-1.36-4.35,20.07,20.07,0,0,1-7,5.49,21.47,21.47,0,0,1-10,2.33,14.83,14.83,0,0,1-10.7-4,13.19,13.19,0,0,1-4.16-9.94q0-6.54,4.09-10.14a19.51,19.51,0,0,1,10.72-4.44Zm-16.66,21.37a9.28,9.28,0,0,0,5.93,2,18.16,18.16,0,0,0,8.09-1.93,10.87,10.87,0,0,0,6.59-10.49v-6.36a13.6,13.6,0,0,1-3.73,1.54,30.93,30.93,0,0,1-4.47.88l-4.78.62a18.59,18.59,0,0,0-6.46,1.79,7,7,0,0,0-3.67,6.58A6.48,6.48,0,0,0,1261.77,462.62Z"/><path class="a" d="M1307.1,405h7.69v23.43a17.31,17.31,0,0,1,14.07-6.95,18.49,18.49,0,0,1,14.32,6q5.49,6,5.49,17.82,0,11.18-5.43,18.55t-15,7.38a15.45,15.45,0,0,1-9.09-2.59,22.21,22.21,0,0,1-4.72-4.92v6h-7.29Zm30.24,54.19q3.2-5.1,3.2-13.45,0-7.43-3.2-12.31a10.53,10.53,0,0,0-9.41-4.87,13.13,13.13,0,0,0-9.5,4q-4.08,4-4.08,13.18a29.26,29.26,0,0,0,1.67,10.77q3.13,7.77,11.69,7.77A10.6,10.6,0,0,0,1337.34,459.15Z"/><path class="a" d="M1396.41,427.37q6.24,6.06,6.24,17.82,0,11.38-5.5,18.8t-17.06,7.42q-9.64,0-15.32-6.57t-5.67-17.62q0-11.87,6-18.88t16.06-7A21.09,21.09,0,0,1,1396.41,427.37Zm-4.91,31.28a29.85,29.85,0,0,0,2.89-13.23,23.77,23.77,0,0,0-2.09-10.71q-3.3-6.49-11.38-6.5-7.17,0-10.43,5.53a25.88,25.88,0,0,0-3.26,13.34,22.47,22.47,0,0,0,3.26,12.51q3.26,5,10.34,5Q1388.62,464.6,1391.5,458.65Z"/><path class="a" d="M1417.08,422.67h7.52v8.13q.92-2.37,4.52-5.78a11.75,11.75,0,0,1,8.31-3.4c.15,0,.39,0,.75,0l1.8.18v8.35a11.51,11.51,0,0,0-1.3-.18c-.39,0-.83,0-1.29,0q-6,0-9.19,3.84a13.44,13.44,0,0,0-3.21,8.86v27.07h-7.91Z"/><path class="a" d="M1476.56,441.25a4.3,4.3,0,0,0,3.65-2.28,7,7,0,0,0,.52-3c0-2.71-1-4.67-2.87-5.89s-4.66-1.83-8.22-1.83q-6.18,0-8.77,3.36a11,11,0,0,0-1.89,5.52h-7.38q.21-8.73,5.64-12.15a23.12,23.12,0,0,1,12.57-3.41q8.3,0,13.48,3.16t5.13,9.85v27.11a3.46,3.46,0,0,0,.51,2,2.44,2.44,0,0,0,2.13.75c.35,0,.75,0,1.19-.07s.91-.11,1.4-.2V470a22.47,22.47,0,0,1-2.81.66,22.11,22.11,0,0,1-2.64.13q-4.08,0-5.93-2.9a11.26,11.26,0,0,1-1.36-4.35A20.12,20.12,0,0,1,1474,469a21.55,21.55,0,0,1-10,2.33,14.83,14.83,0,0,1-10.7-4,13.18,13.18,0,0,1-4.15-9.94q0-6.54,4.08-10.14a19.51,19.51,0,0,1,10.73-4.44Zm-16.66,21.37a9.29,9.29,0,0,0,5.94,2,18.15,18.15,0,0,0,8.08-1.93,10.86,10.86,0,0,0,6.59-10.49v-6.36a13.53,13.53,0,0,1-3.72,1.54,31.06,31.06,0,0,1-4.48.88l-4.78.62a18.66,18.66,0,0,0-6.46,1.79,7,7,0,0,0-3.67,6.58A6.48,6.48,0,0,0,1459.9,462.62Z"/><path class="a" d="M1507.47,409.53h8v13.14H1523v6.46h-7.51v30.72a3.32,3.32,0,0,0,1.67,3.3,7.11,7.11,0,0,0,3.07.48l1.23,0c.44,0,1-.07,1.54-.15v6.29a18.42,18.42,0,0,1-2.83.57,26.49,26.49,0,0,1-3.19.17q-5.54,0-7.51-2.83a12.58,12.58,0,0,1-2-7.36V429.13h-6.37v-6.46h6.37Z"/><path class="a" d="M1569.49,427.37q6.24,6.06,6.24,17.82,0,11.38-5.49,18.8t-17.07,7.42q-9.64,0-15.31-6.57t-5.68-17.62q0-11.87,6-18.88t16.06-7A21.09,21.09,0,0,1,1569.49,427.37Zm-4.91,31.28a29.85,29.85,0,0,0,2.89-13.23,23.77,23.77,0,0,0-2.08-10.71q-3.3-6.49-11.39-6.5-7.17,0-10.43,5.53a25.88,25.88,0,0,0-3.26,13.34,22.47,22.47,0,0,0,3.26,12.51c2.18,3.34,5.62,5,10.35,5Q1561.69,464.6,1564.58,458.65Z"/><path class="a" d="M1590.17,422.67h7.51v8.13c.62-1.58,2.12-3.51,4.53-5.78a11.72,11.72,0,0,1,8.3-3.4c.15,0,.4,0,.75,0l1.8.18v8.35a11.51,11.51,0,0,0-1.3-.18c-.39,0-.82,0-1.29,0q-6,0-9.19,3.84a13.48,13.48,0,0,0-3.2,8.86v27.07h-7.91Z"/><path class="a" d="M1653.84,422.67h8.74q-1.66,4.53-7.42,20.67-4.32,12.14-7.21,19.78-6.85,18-9.66,22t-9.66,3.95a18.7,18.7,0,0,1-2.57-.13,19.24,19.24,0,0,1-2.21-.49v-7.2a27.14,27.14,0,0,0,3,.7,11.18,11.18,0,0,0,1.62.13,5.74,5.74,0,0,0,3.23-.72,6.81,6.81,0,0,0,1.73-1.78c.15-.23.67-1.43,1.58-3.59s1.56-3.78,2-4.83l-17.4-48.45h9L1641.14,461Z"/></svg>