<svg xmlns="http://www.w3.org/2000/svg" viewBox="0 0 1057.74 416.98"><defs><style>.cls-1{fill:#bf5700;}.cls-2{font-size:500px;font-family:Helvetica-Light, Helvetica;font-weight:300;letter-spacing:0.75em;}.cls-2,.cls-4{fill:#fff;}.cls-3{letter-spacing:0em;}.cls-5{fill:#005f86;}</style></defs><title>Logo_White</title><g id="Layer_7" data-name="Layer 7"><rect class="cls-1" y="-77.02" width="1686" height="566.48"/><text class="cls-2" transform="translate(-21 392.45)">F<tspan class="cls-3" x="653" y="0">IL</tspan></text><g id="Rays"><path class="cls-4" d="M620.25,120.51c-11.31,9.28-22.91,18-34.48,26.87L577,153.91l-8.78,6.46-8.84,6.33L550.53,173c-5.94,4.13-11.54,8.87-17.31,13.31a84.19,84.19,0,0,1-18.67,11,135.88,135.88,0,0,1-20.94,7c-3.66.87-7.39,1.64-11.25,2.17a73.45,73.45,0,0,1-12.05.78l-1.5-2.59a72.63,72.63,0,0,1,6.69-10.06c2.38-3.08,4.91-5.92,7.49-8.67a136.82,136.82,0,0,1,16.54-14.64,83.8,83.8,0,0,1,18.82-10.71c6.73-2.78,13.62-5.28,20.17-8.37l9.85-4.59,9.9-4.5,10-4.39,10-4.31c13.41-5.63,26.8-11.31,40.48-16.49Z"/><path class="cls-4" d="M471.06,32.49c2.37,14.45,4.16,28.9,6,43.36l1.28,10.84,1.19,10.84,1.06,10.84,1,10.84c.59,7.23,1.89,14.45,2.85,21.68a84.14,84.14,0,0,1,.15,21.68,137.51,137.51,0,0,1-4.39,21.68c-1.08,3.62-2.28,7.23-3.76,10.85a74,74,0,0,1-5.35,10.84h-3a75.09,75.09,0,0,1-5.36-10.84c-1.47-3.62-2.67-7.23-3.75-10.85a135.29,135.29,0,0,1-4.39-21.68,84.14,84.14,0,0,1,.15-21.68c1-7.23,2.25-14.45,2.85-21.68l1-10.84,1.05-10.84,1.2-10.84,1.28-10.84c1.84-14.46,3.63-28.91,6-43.36Z"/><path class="cls-4" d="M320.37,117.91c13.69,5.18,27.08,10.86,40.49,16.49l10,4.31,10,4.39,9.9,4.5,9.86,4.59c6.54,3.09,13.44,5.59,20.17,8.37a84,84,0,0,1,18.81,10.71,136.15,136.15,0,0,1,16.55,14.64c2.58,2.75,5.1,5.59,7.49,8.67a73.53,73.53,0,0,1,6.69,10.06l-1.5,2.59a73.65,73.65,0,0,1-12.06-.78c-3.86-.53-7.58-1.3-11.25-2.17a135.88,135.88,0,0,1-20.94-7,84.12,84.12,0,0,1-18.66-11c-5.77-4.44-11.37-9.18-17.32-13.31l-8.88-6.26-8.85-6.33-8.77-6.46-8.73-6.53c-11.57-8.82-23.17-17.59-34.48-26.87Z"/><path class="cls-4" d="M318.87,291.36c11.31-9.28,22.91-18.05,34.48-26.87l8.73-6.53,8.77-6.45,8.85-6.34,8.88-6.26c5.95-4.13,11.55-8.86,17.32-13.31a84.12,84.12,0,0,1,18.66-11,137,137,0,0,1,20.94-7c3.67-.87,7.39-1.64,11.25-2.17a73.65,73.65,0,0,1,12.06-.78l1.5,2.59a73.53,73.53,0,0,1-6.69,10.06c-2.39,3.08-4.91,5.93-7.49,8.67a135.3,135.3,0,0,1-16.55,14.64,84,84,0,0,1-18.81,10.71c-6.73,2.79-13.63,5.28-20.17,8.38l-9.86,4.58-9.9,4.5-10,4.39-10,4.31c-13.41,5.64-26.8,11.32-40.49,16.49Z"/><path class="cls-4" d="M468.06,379.39c-2.37-14.46-4.16-28.91-6-43.37l-1.28-10.84-1.2-10.84-1.05-10.84-1-10.84c-.6-7.23-1.89-14.45-2.85-21.68a84.14,84.14,0,0,1-.15-21.68A135.29,135.29,0,0,1,459,227.62c1.08-3.62,2.28-7.23,3.75-10.84a74.09,74.09,0,0,1,5.36-10.84h3a73,73,0,0,1,5.35,10.84c1.48,3.61,2.68,7.22,3.76,10.84a137.51,137.51,0,0,1,4.39,21.68,84.14,84.14,0,0,1-.15,21.68c-1,7.23-2.26,14.45-2.85,21.68l-1,10.84-1.06,10.84-1.19,10.84L477.06,336c-1.84,14.46-3.63,28.91-6,43.37Z"/><path class="cls-4" d="M618.74,294c-13.68-5.17-27.07-10.85-40.48-16.49l-10-4.31-10-4.39-9.9-4.5-9.85-4.58c-6.55-3.1-13.44-5.59-20.17-8.38a83.8,83.8,0,0,1-18.82-10.71A136,136,0,0,1,483,226c-2.58-2.74-5.11-5.59-7.49-8.67a72.63,72.63,0,0,1-6.69-10.06l1.5-2.59a73.45,73.45,0,0,1,12.05.78c3.86.53,7.59,1.3,11.25,2.17a137,137,0,0,1,20.94,7,84.19,84.19,0,0,1,18.67,11c5.77,4.45,11.37,9.18,17.31,13.31l8.89,6.26,8.84,6.34L577,258l8.73,6.53c11.57,8.82,23.17,17.59,34.48,26.87Z"/><path class="cls-4" d="M535.73,94.12c-.83,2.64-1.73,5.24-2.6,7.87l-2.74,7.79c-1.82,5.2-3.75,10.34-5.68,15.47l-2.94,7.68-3,7.63-3.14,7.56-3.22,7.52c-1.07,2.51-2,5.07-2.94,7.68s-1.75,5.24-2.7,7.82a51.34,51.34,0,0,1-3.37,7.43,48.12,48.12,0,0,1-4.61,6.71,80.11,80.11,0,0,1-11.91,11.88,74.3,74.3,0,0,1-7.31,5.16,51.84,51.84,0,0,1-8.69,4.37l-2.6-1.5a52.08,52.08,0,0,1-.59-9.71,74.85,74.85,0,0,1,.81-8.91,79.68,79.68,0,0,1,4.3-16.27,48.11,48.11,0,0,1,3.5-7.35,50.84,50.84,0,0,1,4.74-6.64c1.75-2.12,3.61-4.17,5.41-6.25s3.54-4.21,5.17-6.4l4.89-6.55,5-6.51,5.09-6.44,5.16-6.4c3.48-4.24,7-8.48,10.54-12.67l5.37-6.28c1.84-2.06,3.63-4.15,5.51-6.19Z"/><path class="cls-4" d="M406,92.62c1.87,2,3.67,4.13,5.5,6.19l5.38,6.28c3.58,4.19,7.05,8.43,10.53,12.67l5.17,6.4,5.09,6.44,5,6.51,4.89,6.55c1.63,2.19,3.36,4.31,5.16,6.4s3.66,4.13,5.42,6.25a51.72,51.72,0,0,1,4.73,6.64,48.15,48.15,0,0,1,3.51,7.35,81,81,0,0,1,4.3,16.27,74.87,74.87,0,0,1,.8,8.91,51.2,51.2,0,0,1-.58,9.71l-2.6,1.5a52,52,0,0,1-8.7-4.37,75.35,75.35,0,0,1-7.3-5.16,80.19,80.19,0,0,1-11.92-11.88,48,48,0,0,1-4.6-6.71,52.49,52.49,0,0,1-3.38-7.43c-.94-2.58-1.79-5.22-2.69-7.82s-1.87-5.17-2.95-7.68l-3.21-7.52-3.14-7.56-3-7.63-2.94-7.68c-1.93-5.13-3.86-10.27-5.69-15.47L406,102c-.87-2.63-1.78-5.23-2.6-7.87Z"/><path class="cls-4" d="M403.39,317.76c.82-2.65,1.73-5.25,2.6-7.88l2.73-7.79c1.83-5.2,3.76-10.33,5.69-15.47l2.94-7.68,3-7.63,3.14-7.56,3.21-7.52c1.08-2.5,2-5.07,2.95-7.68s1.75-5.24,2.69-7.81a51.49,51.49,0,0,1,3.38-7.43,48.14,48.14,0,0,1,4.6-6.72,80.19,80.19,0,0,1,11.92-11.88,77.12,77.12,0,0,1,7.3-5.16,51.18,51.18,0,0,1,8.7-4.36l2.6,1.5a51.11,51.11,0,0,1,.58,9.71,74.7,74.7,0,0,1-.8,8.9,80.64,80.64,0,0,1-4.3,16.27,48.15,48.15,0,0,1-3.51,7.35,51,51,0,0,1-4.73,6.64c-1.76,2.12-3.61,4.17-5.42,6.26s-3.53,4.21-5.16,6.39l-4.89,6.56-5,6.5-5.09,6.44-5.17,6.4c-3.48,4.24-6.95,8.49-10.53,12.67l-5.38,6.28c-1.83,2.06-3.63,4.15-5.5,6.2Z"/><path class="cls-4" d="M533.13,319.26c-1.88-2.05-3.67-4.14-5.51-6.2l-5.37-6.28c-3.58-4.18-7.06-8.43-10.54-12.67l-5.16-6.4-5.09-6.44-5-6.5-4.89-6.56c-1.63-2.18-3.36-4.31-5.17-6.39s-3.66-4.14-5.41-6.26a50.17,50.17,0,0,1-4.74-6.64,48.11,48.11,0,0,1-3.5-7.35,79.34,79.34,0,0,1-4.3-16.27,74.68,74.68,0,0,1-.81-8.9,52,52,0,0,1,.59-9.71l2.6-1.5a51.07,51.07,0,0,1,8.69,4.36,76,76,0,0,1,7.31,5.16,80.11,80.11,0,0,1,11.91,11.88,48.21,48.21,0,0,1,4.61,6.72,50.38,50.38,0,0,1,3.37,7.43c.95,2.57,1.8,5.21,2.7,7.81s1.87,5.18,2.94,7.68l3.22,7.52,3.14,7.56,3,7.63,2.94,7.68c1.93,5.14,3.86,10.27,5.68,15.47l2.74,7.79c.87,2.63,1.77,5.23,2.6,7.88Z"/><path class="cls-4" d="M599.3,207.44c-2.7.6-5.4,1.11-8.11,1.68l-8.1,1.52c-5.41,1-10.82,1.9-16.22,2.8l-8.11,1.28-8.11,1.19L542.54,217l-8.11,1c-2.7.31-5.41.76-8.11,1.28s-5.4,1.1-8.11,1.57a51.66,51.66,0,0,1-8.11.78,48.26,48.26,0,0,1-8.11-.63,80.08,80.08,0,0,1-16.21-4.4,74.35,74.35,0,0,1-8.11-3.75,50.56,50.56,0,0,1-8.11-5.35v-3a50.64,50.64,0,0,1,8.11-5.36,74.35,74.35,0,0,1,8.11-3.75A79.39,79.39,0,0,1,502,190.94a47.25,47.25,0,0,1,8.11-.64,50.51,50.51,0,0,1,8.11.79c2.71.46,5.41,1,8.11,1.56s5.41,1,8.11,1.29l8.11,1,8.11,1.06,8.11,1.19,8.11,1.29c5.4.89,10.81,1.78,16.22,2.8l8.1,1.52c2.71.56,5.41,1.07,8.11,1.68Z"/></g><polygon class="cls-5" points="469.56 220.94 230 205.94 469.56 190.94 469.56 220.94"/><ellipse class="cls-1" cx="469.56" cy="205.94" rx="36.05" ry="36.12"/></g></svg>