<svg xmlns="http://www.w3.org/2000/svg" viewBox="0 0 1686 566.48"><defs><style>.cls-1{fill:#bf5700;}.cls-2{font-size:500px;font-family:Helvetica-Light, Helvetica;font-weight:300;letter-spacing:0.75em;}.cls-2,.cls-4,.cls-7{fill:#fff;}.cls-3{letter-spacing:0em;}.cls-5{fill:#005f86;}.cls-6{fill:#231f20;stroke:#fff;stroke-miterlimit:10;stroke-width:5px;}.cls-7{font-size:90px;font-family:Helvetica;letter-spacing:0.05em;}</style></defs><title>Logo_White_Name</title><g id="Layer_7" data-name="Layer 7"><rect class="cls-1" width="1686" height="566.48"/><text class="cls-2" transform="translate(-21 469.47)">F<tspan class="cls-3" x="653" y="0">IL</tspan></text><g id="Rays"><path class="cls-4" d="M620.25,197.53c-11.31,9.28-22.91,18.05-34.48,26.87L577,230.93l-8.78,6.45-8.84,6.34L550.53,250c-5.94,4.13-11.54,8.86-17.31,13.3a83.84,83.84,0,0,1-18.67,11,136.93,136.93,0,0,1-20.94,7c-3.66.87-7.39,1.64-11.25,2.18a73.45,73.45,0,0,1-12.05.78l-1.5-2.6a72.51,72.51,0,0,1,6.69-10c2.38-3.08,4.91-5.93,7.49-8.67a136,136,0,0,1,16.54-14.64,83.8,83.8,0,0,1,18.82-10.71c6.73-2.79,13.62-5.28,20.17-8.38l9.85-4.58,9.9-4.51,10-4.38,10-4.31c13.41-5.64,26.8-11.32,40.48-16.49Z"/><path class="cls-4" d="M471.06,109.5c2.37,14.46,4.16,28.91,6,43.36l1.28,10.84,1.19,10.85,1.06,10.84,1,10.84c.59,7.22,1.89,14.45,2.85,21.68a84.14,84.14,0,0,1,.15,21.68,137.74,137.74,0,0,1-4.39,21.68c-1.08,3.61-2.28,7.23-3.76,10.84A73,73,0,0,1,471.06,283h-3a74.09,74.09,0,0,1-5.36-10.84c-1.47-3.61-2.67-7.23-3.75-10.84a135.51,135.51,0,0,1-4.39-21.68,84.14,84.14,0,0,1,.15-21.68c1-7.23,2.25-14.46,2.85-21.68l1-10.84,1.05-10.84,1.2-10.85,1.28-10.84c1.84-14.45,3.63-28.9,6-43.36Z"/><path class="cls-4" d="M320.37,194.93c13.69,5.17,27.08,10.85,40.49,16.49l10,4.31,10,4.38,9.9,4.51,9.86,4.58c6.54,3.1,13.44,5.59,20.17,8.38a84,84,0,0,1,18.81,10.71,135.3,135.3,0,0,1,16.55,14.64c2.58,2.74,5.1,5.59,7.49,8.67a73.42,73.42,0,0,1,6.69,10l-1.5,2.6a73.65,73.65,0,0,1-12.06-.78c-3.86-.54-7.58-1.31-11.25-2.18a136.93,136.93,0,0,1-20.94-7,83.78,83.78,0,0,1-18.66-11c-5.77-4.44-11.37-9.17-17.32-13.3l-8.88-6.26-8.85-6.34-8.77-6.45-8.73-6.53c-11.57-8.82-23.17-17.59-34.48-26.87Z"/><path class="cls-4" d="M318.87,368.38c11.31-9.28,22.91-18.06,34.48-26.88l8.73-6.53,8.77-6.45,8.85-6.33,8.88-6.26c5.95-4.13,11.55-8.87,17.32-13.31a84.12,84.12,0,0,1,18.66-11,135.88,135.88,0,0,1,20.94-7c3.67-.87,7.39-1.64,11.25-2.17a74.75,74.75,0,0,1,12.06-.79l1.5,2.6a73.53,73.53,0,0,1-6.69,10.06c-2.39,3.08-4.91,5.92-7.49,8.67a136.15,136.15,0,0,1-16.55,14.64,84.35,84.35,0,0,1-18.81,10.71c-6.73,2.78-13.63,5.27-20.17,8.37l-9.86,4.58-9.9,4.51-10,4.39-10,4.31c-13.41,5.63-26.8,11.31-40.49,16.49Z"/><path class="cls-4" d="M468.06,456.4c-2.37-14.45-4.16-28.91-6-43.36l-1.28-10.84-1.2-10.84-1.05-10.84-1-10.84c-.6-7.23-1.89-14.46-2.85-21.68a84.22,84.22,0,0,1-.15-21.69A135.73,135.73,0,0,1,459,304.63c1.08-3.61,2.28-7.22,3.75-10.84A75.09,75.09,0,0,1,468.06,283h3a74,74,0,0,1,5.35,10.84c1.48,3.62,2.68,7.23,3.76,10.84a138,138,0,0,1,4.39,21.68,84.22,84.22,0,0,1-.15,21.69c-1,7.22-2.26,14.45-2.85,21.68l-1,10.84-1.06,10.84-1.19,10.84L477.06,413c-1.84,14.45-3.63,28.91-6,43.36Z"/><path class="cls-4" d="M618.74,371c-13.68-5.18-27.07-10.86-40.48-16.49l-10-4.31-10-4.39-9.9-4.51-9.85-4.58c-6.55-3.1-13.44-5.59-20.17-8.37a84.19,84.19,0,0,1-18.82-10.71A136.82,136.82,0,0,1,483,303c-2.58-2.75-5.11-5.59-7.49-8.67a72.63,72.63,0,0,1-6.69-10.06l1.5-2.6a74.55,74.55,0,0,1,12.05.79c3.86.53,7.59,1.3,11.25,2.17a135.88,135.88,0,0,1,20.94,7,84.19,84.19,0,0,1,18.67,11c5.77,4.44,11.37,9.18,17.31,13.31l8.89,6.26,8.84,6.33L577,335l8.73,6.53c11.57,8.82,23.17,17.6,34.48,26.88Z"/><path class="cls-4" d="M535.73,171.13c-.83,2.65-1.73,5.25-2.6,7.88l-2.74,7.79c-1.82,5.2-3.75,10.33-5.68,15.47L521.77,210l-3,7.63-3.14,7.56-3.22,7.52c-1.07,2.5-2,5.07-2.94,7.67s-1.75,5.25-2.7,7.82a50.86,50.86,0,0,1-3.37,7.43,48.21,48.21,0,0,1-4.61,6.72,80.11,80.11,0,0,1-11.91,11.88,76,76,0,0,1-7.31,5.16,51.07,51.07,0,0,1-8.69,4.36l-2.6-1.5a52,52,0,0,1-.59-9.71,75,75,0,0,1,.81-8.91,79.42,79.42,0,0,1,4.3-16.26,48.11,48.11,0,0,1,3.5-7.35,50.94,50.94,0,0,1,4.74-6.65c1.75-2.11,3.61-4.16,5.41-6.25s3.54-4.21,5.17-6.39l4.89-6.56,5-6.5,5.09-6.44,5.16-6.4c3.48-4.24,7-8.49,10.54-12.67l5.37-6.28c1.84-2.06,3.63-4.15,5.51-6.2Z"/><path class="cls-4" d="M406,169.63c1.87,2.05,3.67,4.14,5.5,6.2l5.38,6.28c3.58,4.18,7.05,8.43,10.53,12.67l5.17,6.4,5.09,6.44,5,6.5,4.89,6.56c1.63,2.18,3.36,4.31,5.16,6.39s3.66,4.14,5.42,6.25a51.82,51.82,0,0,1,4.73,6.65,48.15,48.15,0,0,1,3.51,7.35,80.72,80.72,0,0,1,4.3,16.26,75.06,75.06,0,0,1,.8,8.91,51.15,51.15,0,0,1-.58,9.71l-2.6,1.5a51.18,51.18,0,0,1-8.7-4.36,77.12,77.12,0,0,1-7.3-5.16,80.19,80.19,0,0,1-11.92-11.88,48.14,48.14,0,0,1-4.6-6.72,52,52,0,0,1-3.38-7.43c-.94-2.57-1.79-5.21-2.69-7.82s-1.87-5.17-2.95-7.67l-3.21-7.52-3.14-7.56-3-7.63-2.94-7.68c-1.93-5.14-3.86-10.27-5.69-15.47L406,179c-.87-2.63-1.78-5.23-2.6-7.88Z"/><path class="cls-4" d="M403.39,394.77c.82-2.65,1.73-5.25,2.6-7.87l2.73-7.8c1.83-5.19,3.76-10.33,5.69-15.47l2.94-7.67,3-7.63,3.14-7.57,3.21-7.51c1.08-2.51,2-5.07,2.95-7.68s1.75-5.24,2.69-7.82a52.49,52.49,0,0,1,3.38-7.43,47.47,47.47,0,0,1,4.6-6.71,80.19,80.19,0,0,1,11.92-11.88,75.41,75.41,0,0,1,7.3-5.17,51.93,51.93,0,0,1,8.7-4.36l2.6,1.5a51.2,51.2,0,0,1,.58,9.71,75.06,75.06,0,0,1-.8,8.91,80.72,80.72,0,0,1-4.3,16.26,47.82,47.82,0,0,1-3.51,7.36,52.43,52.43,0,0,1-4.73,6.64c-1.76,2.11-3.61,4.17-5.42,6.25s-3.53,4.21-5.16,6.4l-4.89,6.55-5,6.51-5.09,6.44-5.17,6.39c-3.48,4.25-6.95,8.49-10.53,12.68l-5.38,6.27c-1.83,2.07-3.63,4.16-5.5,6.2Z"/><path class="cls-4" d="M533.13,396.27c-1.88-2-3.67-4.13-5.51-6.2l-5.37-6.27c-3.58-4.19-7.06-8.43-10.54-12.68l-5.16-6.39-5.09-6.44-5-6.51-4.89-6.55c-1.63-2.19-3.36-4.31-5.17-6.4s-3.66-4.14-5.41-6.25a51.52,51.52,0,0,1-4.74-6.64,47.77,47.77,0,0,1-3.5-7.36,79.42,79.42,0,0,1-4.3-16.26,75,75,0,0,1-.81-8.91,52.08,52.08,0,0,1,.59-9.71l2.6-1.5a51.82,51.82,0,0,1,8.69,4.36,74.36,74.36,0,0,1,7.31,5.17,80.11,80.11,0,0,1,11.91,11.88,47.54,47.54,0,0,1,4.61,6.71,51.34,51.34,0,0,1,3.37,7.43c.95,2.58,1.8,5.22,2.7,7.82s1.87,5.17,2.94,7.68l3.22,7.51,3.14,7.57,3,7.63,2.94,7.67c1.93,5.14,3.86,10.28,5.68,15.47l2.74,7.8c.87,2.62,1.77,5.22,2.6,7.87Z"/><path class="cls-4" d="M599.3,284.45c-2.7.61-5.4,1.12-8.11,1.68l-8.1,1.52c-5.41,1-10.82,1.91-16.22,2.8l-8.11,1.28-8.11,1.2L542.54,294l-8.11,1c-2.7.32-5.41.76-8.11,1.28s-5.4,1.11-8.11,1.57a50.51,50.51,0,0,1-8.11.79A47.25,47.25,0,0,1,502,298a79.39,79.39,0,0,1-16.21-4.39,74.35,74.35,0,0,1-8.11-3.75,51.33,51.33,0,0,1-8.11-5.36v-3a50.56,50.56,0,0,1,8.11-5.35,74.45,74.45,0,0,1,8.11-3.76A80.7,80.7,0,0,1,502,268a47.23,47.23,0,0,1,8.11-.63,51.66,51.66,0,0,1,8.11.78c2.71.47,5.41,1,8.11,1.57s5.41,1,8.11,1.28l8.11,1,8.11,1.06,8.11,1.19,8.11,1.28c5.4.9,10.81,1.79,16.22,2.8l8.1,1.52c2.71.56,5.41,1.08,8.11,1.68Z"/></g><polygon class="cls-5" points="469.56 297.95 230 282.95 469.56 267.95 469.56 297.95"/><ellipse class="cls-1" cx="469.56" cy="282.95" rx="36.05" ry="36.12"/><line class="cls-6" x1="1119.18" y1="43.16" x2="1119.18" y2="522.75"/><text class="cls-7" transform="translate(1192.85 145.74)">Functional<tspan x="0" y="108">Optical </tspan><tspan x="0" y="216">Imaging</tspan><tspan x="0" y="324">Laboratory</tspan></text></g></svg>